<?xml version="1.0" encoding="UTF-8" standalone="no"?>
<!-- Creator: CorelDRAW -->
<svg
   xmlns:dc="http://purl.org/dc/elements/1.1/"
   xmlns:cc="http://creativecommons.org/ns#"
   xmlns:rdf="http://www.w3.org/1999/02/22-rdf-syntax-ns#"
   xmlns:svg="http://www.w3.org/2000/svg"
   xmlns="http://www.w3.org/2000/svg"
   xmlns:sodipodi="http://sodipodi.sourceforge.net/DTD/sodipodi-0.dtd"
   xmlns:inkscape="http://www.inkscape.org/namespaces/inkscape"
   xml:space="preserve"
   width="220"
   height="127.45"
   style="fill-rule:evenodd"
   viewBox="0 0 2480 3508"
   id="svg2680"
   sodipodi:version="0.32"
   inkscape:version="0.46"
   sodipodi:docname="people.svg"
   inkscape:output_extension="org.inkscape.output.svg.inkscape"
   version="1.0"><metadata
   id="metadata2714"><rdf:RDF><cc:Work
       rdf:about=""><dc:format>image/svg+xml</dc:format><dc:type
         rdf:resource="http://purl.org/dc/dcmitype/StillImage" /></cc:Work></rdf:RDF></metadata><sodipodi:namedview
   inkscape:window-height="480"
   inkscape:window-width="640"
   inkscape:pageshadow="2"
   inkscape:pageopacity="0.0"
   guidetolerance="10.0"
   gridtolerance="10.0"
   objecttolerance="10.0"
   borderopacity="1.0"
   bordercolor="#666666"
   pagecolor="#ffffff"
   id="base"
   showgrid="false"
   showguides="true"
   inkscape:guide-bbox="true"
   inkscape:zoom="3.9701845"
   inkscape:cx="110"
   inkscape:cy="63.724998"
   inkscape:current-layer="svg2680" />
 <defs
   id="defs2682"><inkscape:perspective
   sodipodi:type="inkscape:persp3d"
   inkscape:vp_x="0 : 1754 : 1"
   inkscape:vp_y="0 : 1000 : 0"
   inkscape:vp_z="2480 : 1754 : 1"
   inkscape:persp3d-origin="1240 : 1169.3333 : 1"
   id="perspective2716" />
  <style
   type="text/css"
   id="style2684">
   
    .str0 {stroke:#ffffff;}
    .fil0 {fill:#ffffff;}
   
  </style>
 </defs>
 <g
   id="Layer 1"
   transform="matrix(6.3129633,0,0,6.312947,-5530.6532,-5737.7169)">
  <g
   id="g2687">
   <path
   class="fil0 str0"
   d="M 766,1247 L 809.04734,1420.4642 L 834.04734,1420.4642 L 807,1219 L 807,1192 L 811,1096 L 873,1215 L 894,1210 L 827,1040 L 766,1040 L 704,1040 L 637,1210 L 659,1215 L 720,1096 L 725,1192 L 724,1219 L 697.27677,1420.4642 L 721.27677,1420.4642 L 766,1247 z"
   id="path2689"
   sodipodi:nodetypes="ccccccccccccccccccc"
   style="fill:#ffffff;;stroke:#ffffff;" />
   <ellipse
   class="fil0 str0"
   cx="766"
   cy="990"
   rx="30"
   ry="37"
   id="ellipse2691"
   sodipodi:cx="766"
   sodipodi:cy="990"
   sodipodi:rx="30"
   sodipodi:ry="37"
   style="fill:#ffffff;;stroke:#ffffff;" />
  </g>
  <g
   id="g2693">
   <path
   class="fil0 str0"
   d="M 1033,1051 L 1090,1057 L 1145,1211 L 1134,1216 L 1077,1098 L 1064,1183 L 1106,1291 L 1062,1291 L 1050,1420 L 1038,1420 L 1037,1291 L 1033,1291 L 1029,1291 L 1027,1420 L 1015,1420 L 1003,1291 L 960,1291 L 1001,1183 L 989,1098 L 931,1216 L 920,1211 L 975,1057 L 1033,1051 z"
   id="path2695"
   style="fill:#ffffff;;stroke:#ffffff;" />
   <ellipse
   class="fil0 str0"
   cx="1033"
   cy="1008"
   rx="29"
   ry="31"
   id="ellipse2697"
   sodipodi:cx="1033"
   sodipodi:cy="1008"
   sodipodi:rx="29"
   sodipodi:ry="31"
   style="fill:#ffffff;;stroke:#ffffff;" />
  </g>
  <g
   id="g2699">
   <path
   class="fil0 str0"
   d="M 1212,1354 L 1228,1420 L 1245,1420 L 1236,1287 L 1274,1327 L 1286,1320 L 1239,1248 L 1212,1245 L 1185,1248 L 1137,1320 L 1149,1327 L 1188,1287 L 1179,1420 L 1196,1420 L 1212,1354 z"
   id="path2701"
   style="fill:#ffffff;;stroke:#ffffff;" />
   <ellipse
   class="fil0 str0"
   cx="1212"
   cy="1211"
   rx="24"
   ry="25"
   id="ellipse2703"
   sodipodi:cx="1212"
   sodipodi:cy="1211"
   sodipodi:rx="24"
   sodipodi:ry="25"
   style="fill:#ffffff;;stroke:#ffffff;" />
  </g>
  <g
   id="g2705">
   <path
   class="fil0 str0"
   d="M 1393,1260 L 1420,1320 L 1442,1420 L 1459,1420 L 1457,1313 L 1438,1232 L 1434,1131 L 1481,1237 L 1500,1233 L 1440,1076 L 1393,1064 L 1345,1076 L 1286,1233 L 1305,1237 L 1352,1131 L 1348,1232 L 1329,1313 L 1326,1420 L 1344,1420 L 1366,1320 L 1393,1260 z"
   id="path2707"
   style="fill:#ffffff;;stroke:#ffffff;" />
   <path
   class="fil0 str0"
   d="M 1508,1420 L 1508,1259 C 1508,1259 1508,1258 1508,1258 C 1508,1249 1501,1242 1492,1242 C 1486,1242 1480,1246 1478,1251 L 1481,1254 C 1483,1250 1487,1247 1492,1247 C 1498,1247 1503,1252 1503,1258 C 1503,1258 1503,1259 1503,1259 L 1503,1420 L 1508,1420 z"
   id="path2709"
   style="fill:#ffffff;;stroke:#ffffff;" />
   <ellipse
   class="fil0 str0"
   cx="1393"
   cy="1029"
   rx="30"
   ry="31"
   id="ellipse2711"
   sodipodi:cx="1393"
   sodipodi:cy="1029"
   sodipodi:rx="30"
   sodipodi:ry="31"
   style="fill:#ffffff;;stroke:#ffffff;" />
  </g>
 </g>
</svg>